<svg xmlns="http://www.w3.org/2000/svg" version="1.1" xmlns:xlink="http://www.w3.org/1999/xlink" xmlns:svgjs="http://svgjs.com/svgjs" width="1920" height="1080" preserveAspectRatio="none" viewBox="0 0 1920 1080"><g mask="url(&quot;#SvgjsMask1096&quot;)" fill="none"><rect width="1920" height="1080" x="0" y="0" fill="url(#SvgjsLinearGradient1097)"></rect><path d="M66 1080L1146 0L1624.5 0L544.5 1080z" fill="url(#SvgjsLinearGradient1098)"></path><path d="M697.6 1080L1777.6 0L2491.6 0L1411.6 1080z" fill="url(#SvgjsLinearGradient1098)"></path><path d="M1868 1080L788 0L176 0L1256 1080z" fill="url(#SvgjsLinearGradient1099)"></path><path d="M1172.4 1080L92.40000000000009 0L-125.09999999999991 0L954.9000000000001 1080z" fill="url(#SvgjsLinearGradient1099)"></path><path d="M1128.0216951423854 1080L1920 288.0216951423855L1920 1080z" fill="url(#SvgjsLinearGradient1098)"></path><path d="M0 1080L791.9783048576145 1080L 0 288.0216951423855z" fill="url(#SvgjsLinearGradient1099)"></path></g><defs><mask id="SvgjsMask1096"><rect width="1920" height="1080" fill="#ffffff"></rect></mask><linearGradient x1="0%" y1="50%" x2="100%" y2="50%" gradientUnits="userSpaceOnUse" id="SvgjsLinearGradient1097"><stop stop-color="#0e2a47" offset="0"></stop><stop stop-color="rgba(0, 13, 89, 1)" offset="1"></stop></linearGradient><linearGradient x1="0%" y1="100%" x2="100%" y2="0%" id="SvgjsLinearGradient1098"><stop stop-color="rgba(15, 70, 185, 0.2)" offset="0"></stop><stop stop-opacity="0" stop-color="rgba(15, 70, 185, 0.2)" offset="0.66"></stop></linearGradient><linearGradient x1="100%" y1="100%" x2="0%" y2="0%" id="SvgjsLinearGradient1099"><stop stop-color="rgba(15, 70, 185, 0.2)" offset="0"></stop><stop stop-opacity="0" stop-color="rgba(15, 70, 185, 0.2)" offset="0.66"></stop></linearGradient></defs></svg>